<svg width="135" height="31" viewBox="0 0 135 31" fill="none" xmlns="http://www.w3.org/2000/svg">
<path d="M42.8516 22.2532V9.37246H45.3357V14.6904H51.4817V9.37246H53.9658V22.2532H51.4817V16.9169H45.3357V22.2532H42.8516Z" fill="white"/>
<path d="M55.4552 22.2532L59.9266 9.37246H63.7725L68.1703 22.2532H65.5942L64.6925 19.5667H58.9514L58.0313 22.2532H55.4552ZM59.6874 17.3217H63.9565L61.8587 10.955L59.6874 17.3217Z" fill="white"/>
<path d="M71.7066 22.2532C70.5181 22.2532 69.5547 21.2898 69.5547 20.1014V9.37246H72.0389V19.2358C72.0389 19.632 72.36 19.9531 72.7561 19.9531H78.6914V22.2532H71.7066Z" fill="white"/>
<path d="M92.0848 15.8312C92.1032 17.653 91.4591 19.1986 90.1711 20.4867C88.883 21.7564 87.3373 22.4004 85.5156 22.4004C83.6939 22.4004 82.1482 21.7564 80.8785 20.4867C79.6088 19.1986 78.9648 17.653 78.9648 15.8312C78.9648 14.0095 79.6088 12.4638 80.8785 11.1758C82.1482 9.88769 83.6939 9.24365 85.5156 9.24365C87.3373 9.24365 88.883 9.88769 90.1527 11.1758C91.4223 12.4454 92.0664 14.0095 92.0848 15.8312ZM85.5156 11.5438C84.3563 11.5438 83.3994 11.967 82.6082 12.7951C81.817 13.6231 81.4305 14.6352 81.4305 15.8312C81.4305 17.0089 81.817 18.021 82.5898 18.849C83.3811 19.6771 84.3563 20.0819 85.5156 20.0819C86.6748 20.0819 87.6501 19.6771 88.4413 18.849C89.2326 18.021 89.619 17.0273 89.619 15.8312C89.619 14.6352 89.2326 13.6231 88.4413 12.7951C87.6501 11.967 86.6748 11.5438 85.5156 11.5438Z" fill="white"/>
<path d="M101.425 22.2532C100.237 22.2532 99.2736 21.2898 99.2736 20.1014V9.37246H101.758V19.2358C101.758 19.632 102.079 19.9531 102.475 19.9531H108.41V22.2532H101.425Z" fill="white"/>
<path d="M109.545 22.2532L114.016 9.37246H117.862L122.26 22.2532H119.684L118.782 19.5667H113.041L112.121 22.2532H109.545ZM113.777 17.3217H118.046L115.949 10.955L113.777 17.3217Z" fill="white"/>
<path d="M123.663 22.2532V9.37246H129.551C130.766 9.37246 131.741 9.70368 132.459 10.3477C133.176 10.9918 133.544 11.8014 133.544 12.7767C133.544 14.0095 132.919 15.0768 131.907 15.6656C133.323 16.2545 134.06 17.4137 134.06 18.7938C134.06 19.8059 133.691 20.6339 132.955 21.278C132.219 21.922 131.226 22.2532 129.956 22.2532H123.663ZM126.055 14.8008H129.459C130.471 14.8008 131.171 14.0831 131.171 13.1815C131.171 12.2982 130.49 11.599 129.478 11.599H126.055V14.8008ZM126.055 20.0267H129.79C130.839 20.0267 131.539 19.3459 131.539 18.4074C131.539 17.4689 130.821 16.8065 129.772 16.8065H126.055V20.0267Z" fill="white"/>
<g clip-path="url(#clip0_35950_38520)">
<path d="M24.2409 0.4C24.3309 0.2 24.6309 0.2 24.7209 0.4C25.8209 2.92 27.8309 4.92 30.3509 6.02C30.5509 6.11 30.5509 6.41 30.3509 6.5C27.8309 7.59 25.8209 9.6 24.7209 12.12C24.6309 12.32 24.3309 12.32 24.2409 12.12C23.1409 9.6 21.1309 7.6 18.6109 6.5C18.4109 6.41 18.4109 6.11 18.6109 6.02C21.1309 4.93 23.1409 2.92 24.2409 0.4Z" fill="#FDC448"/>
<path d="M29.85 15.82C29.85 24.07 23.16 30.75 14.92 30.75C6.68 30.75 0 24.07 0 15.82C0 7.57002 6.68 0.900024 14.92 0.900024V5.75002C9.36 5.75002 4.85 10.26 4.85 15.82C4.85 21.38 9.36 25.89 14.92 25.89C20.48 25.89 24.99 21.39 24.99 15.82H29.85Z" fill="white"/>
</g>
<defs>
<clipPath id="clip0_35950_38520">
<rect width="30.5" height="30.5" fill="white" transform="translate(0 0.25)"/>
</clipPath>
</defs>
</svg>
