<svg width="112" height="50" viewBox="0 0 112 50" fill="none" xmlns="http://www.w3.org/2000/svg">
<path fill-rule="evenodd" clip-rule="evenodd" d="M71.2029 9.77296C67.2294 12.9736 62.8985 15.5766 58.3038 17.5114C55.8315 12.972 52.7229 8.68517 49.0469 4.73042C51.2178 4.01434 53.5339 3.60938 55.9485 3.60938C61.8911 3.60938 67.2756 5.96464 71.2029 9.77296ZM56.5546 21.9922C57.1497 23.2387 57.6877 24.5116 58.1941 25.7951C50.8633 28.189 44.454 33.1683 40.4554 40.1284C36.6026 36.2777 34.2158 31.0002 34.1875 25.1681C42.0122 25.5972 49.5779 24.4542 56.5546 21.9922ZM59.9219 20.6857C60.567 22.0513 61.1436 23.4395 61.6854 24.8378C66.9926 23.7425 72.4958 24.0043 77.6714 25.5984C77.6742 25.5263 77.6793 25.4546 77.6844 25.3829C77.692 25.2747 77.6997 25.1664 77.6997 25.0561C77.6997 20.3558 76.1484 16.0202 73.5472 12.4844C69.429 15.8126 64.8538 18.589 59.9219 20.6857ZM65.7995 44.1805C65.5199 38.7942 64.574 33.4389 62.9062 28.2521C67.6908 27.3408 72.6206 27.6706 77.2964 29.2369C75.9865 35.7802 71.6573 41.2417 65.7995 44.1805ZM54.9002 18.7954C52.3823 14.2678 49.229 10.0577 45.5225 6.23438C42.6208 7.80186 40.1198 10.0013 38.2097 12.6653C36.2997 15.3294 35.031 18.3879 34.5 21.6082C41.5213 21.9799 48.4229 21.0144 54.9002 18.7954ZM57.3794 29.8807C58.0468 29.6082 58.7268 29.384 59.4067 29.1641C61.1142 34.4249 62.0454 39.9497 62.2206 45.6048C60.1849 46.2112 58.0699 46.5195 55.9434 46.5198C51.2073 46.5198 46.8388 45.0115 43.2656 42.4776C46.3357 36.7963 51.2655 32.377 57.3794 29.8807Z" fill="white"/>
<path d="M13.8439 5.66472C14.8941 4.02607 15.3479 2.5 15.3479 2.5C15.3479 2.5 13.9713 2.95699 12.2802 4.28565C10.7337 5.66877 8.94316 8.07726 9.06926 11.2285C11.3816 9.39644 12.9077 7.43462 13.8439 5.66472Z" fill="white"/>
<path d="M5.01593 23.8682L4.92621 25.1554C4.91016 25.4295 5.09981 25.6726 5.37671 25.6794C5.643 25.7012 5.88352 25.4788 5.89827 25.2138L5.98887 23.9304C7.88825 22.7986 9.19099 21.1837 10.0111 19.7438C10.4244 18.9458 10.7953 18.227 11.0617 17.7111C11.2773 17.1635 11.4177 16.8318 11.4177 16.8318C11.4177 16.8318 10.1826 16.9499 8.66354 17.9282C7.58874 18.7375 6.14389 20.2142 5.60881 22.5666C5.60535 22.5661 5.60218 22.5634 5.59803 22.5627C5.61543 20.1367 5.31885 18.2071 4.70489 16.6726C4.1444 14.8601 3.33643 13.7405 3.33643 13.7405C3.33643 13.7405 3.20573 14.1841 2.99743 14.8908C2.81841 15.611 2.58614 16.5978 2.65487 17.7519C2.67004 19.842 3.20186 22.2939 5.01593 23.8682Z" fill="white"/>
<path d="M6.20333 17.2047C6.10525 17.4725 6.25813 17.75 6.52412 17.834C6.77508 17.9141 7.03739 17.7533 7.13327 17.5011L7.54239 16.3161C9.6123 15.7032 10.9616 14.3511 12.1331 13.2435C12.7399 12.6109 13.1754 11.9817 13.4658 11.5169C13.7835 11.0646 13.9918 10.7992 13.9918 10.7992C13.9918 10.7992 12.7119 10.5715 11.2402 11.2649C10.0152 11.7927 8.4738 12.8644 7.46766 14.8734C7.45747 14.8702 7.44877 14.8666 7.43917 14.8643C7.94703 12.6443 7.96366 10.8008 7.75673 9.27519C7.43653 7.39241 6.99887 6.23069 6.99887 6.23069C6.82998 6.06643 3.73607 12.1512 6.5928 16.0585L6.20333 17.2047Z" fill="white"/>
<path d="M9.04924 39.7971C9.4088 40.3126 10.076 41.2494 10.1276 41.2C10.3303 41.4061 10.6503 41.4288 10.8399 41.2407C11.0284 41.0509 11.0422 40.7373 10.8527 40.5486C10.8006 40.5856 10.1315 39.6529 9.794 39.1766C11.539 33.794 10.4589 29.4931 10.65 29.2046C10.65 29.2046 9.26195 29.9531 8.50376 31.6721C7.69483 33.1733 7.25362 35.9601 8.95184 38.7556C8.94074 38.7639 8.92886 38.7678 8.91845 38.7762C8.90042 38.7884 8.89119 38.8086 8.87642 38.8228C6.89783 36.2257 5.20991 34.3456 3.63499 32.8748C1.7723 31.2635 0.514879 30.4404 0.51598 30.4326C0.413214 30.3923 0.783813 32.8516 2.28012 35.4658C3.6579 37.8552 6.24487 39.9041 9.04924 39.7971Z" fill="white"/>
<path d="M15.1427 45.4794L18.2958 47.4289C18.535 47.5867 18.845 47.465 18.9555 47.2297C19.0707 46.9662 18.9539 46.6939 18.7289 46.5457L15.6186 44.6142C15.4824 41.6396 14.6702 39.2208 13.9793 37.5185C13.3369 35.6286 12.5679 34.4134 12.6211 34.3584C12.6211 34.3584 11.5562 35.5693 11.4157 37.6524C11.1104 39.6125 11.9718 42.4612 14.8303 44.6044C14.8111 44.6251 14.7881 44.6423 14.7711 44.6678C11.794 42.7911 9.14973 41.7399 7.08697 40.8222C4.70408 39.9528 3.07177 39.5956 3.07177 39.5956C3.07177 39.5956 3.29293 40.2077 3.94693 41.0423C4.61306 41.8463 5.50788 42.9883 6.74076 43.9349C9.11563 45.729 12.4217 46.7973 15.1427 45.4794Z" fill="white"/>
<path d="M5.57095 32.2919L6.04923 34.0241C6.1268 34.2978 6.38882 34.4602 6.64183 34.3601C6.89553 34.2602 7.03818 33.968 6.96762 33.7048L6.50904 32.0389C8.25868 30.0453 9.3744 27.8879 9.88949 26.1285C10.6692 24.2073 10.6808 22.6549 10.7685 22.6311C10.7685 22.6311 9.35888 22.9956 7.98799 24.4557C6.71468 25.7168 5.40802 28.0969 5.91137 31.3223C5.87624 31.3201 5.84181 31.313 5.80696 31.3188C4.97314 28.1747 3.97995 25.7774 2.97151 23.9796C1.78791 21.9767 0.660621 20.8346 0.660621 20.8346C0.660621 20.8346 0.522636 21.3798 0.546999 22.291C0.541781 23.1959 0.604012 24.4613 0.823292 25.799C1.44955 28.3703 2.81872 31.2923 5.57095 32.2919Z" fill="white"/>
<path d="M98.1561 5.66472C97.1059 4.02607 96.6521 2.5 96.6521 2.5C96.6521 2.5 98.0287 2.95699 99.7198 4.28565C101.266 5.66877 103.057 8.07726 102.931 11.2285C100.618 9.39644 99.0923 7.43462 98.1561 5.66472Z" fill="white"/>
<path d="M106.984 23.8682L107.074 25.1554C107.09 25.4295 106.9 25.6726 106.623 25.6794C106.357 25.7012 106.116 25.4788 106.102 25.2138L106.011 23.9304C104.112 22.7986 102.809 21.1837 101.989 19.7438C101.576 18.9458 101.205 18.227 100.938 17.7111C100.723 17.1635 100.582 16.8318 100.582 16.8318C100.582 16.8318 101.817 16.9499 103.336 17.9282C104.411 18.7375 105.856 20.2142 106.391 22.5666C106.395 22.5661 106.398 22.5634 106.402 22.5627C106.385 20.1367 106.681 18.2071 107.295 16.6726C107.856 14.8601 108.664 13.7405 108.664 13.7405C108.664 13.7405 108.794 14.1841 109.003 14.8908C109.182 15.611 109.414 16.5978 109.345 17.7519C109.33 19.842 108.798 22.2939 106.984 23.8682Z" fill="white"/>
<path d="M105.797 17.2047C105.895 17.4725 105.742 17.75 105.476 17.834C105.225 17.9141 104.963 17.7533 104.867 17.5011L104.458 16.3161C102.388 15.7032 101.038 14.3511 99.8669 13.2435C99.2601 12.6109 98.8246 11.9817 98.5342 11.5169C98.2165 11.0646 98.0082 10.7992 98.0082 10.7992C98.0082 10.7992 99.2881 10.5715 100.76 11.2649C101.985 11.7927 103.526 12.8644 104.532 14.8734C104.543 14.8702 104.551 14.8666 104.561 14.8643C104.053 12.6443 104.036 10.8008 104.243 9.27519C104.563 7.39241 105.001 6.23069 105.001 6.23069C105.17 6.06643 108.264 12.1512 105.407 16.0585L105.797 17.2047Z" fill="white"/>
<path d="M102.951 39.7971C102.591 40.3126 101.924 41.2494 101.872 41.2C101.67 41.4061 101.35 41.4288 101.16 41.2407C100.972 41.0509 100.958 40.7373 101.147 40.5486C101.199 40.5856 101.869 39.6529 102.206 39.1766C100.461 33.794 101.541 29.4931 101.35 29.2046C101.35 29.2046 102.738 29.9531 103.496 31.6721C104.305 33.1733 104.746 35.9601 103.048 38.7556C103.059 38.7639 103.071 38.7678 103.082 38.7762C103.1 38.7884 103.109 38.8086 103.124 38.8228C105.102 36.2257 106.79 34.3456 108.365 32.8748C110.228 31.2635 111.485 30.4404 111.484 30.4326C111.587 30.3923 111.216 32.8516 109.72 35.4658C108.342 37.8552 105.755 39.9041 102.951 39.7971Z" fill="white"/>
<path d="M96.8573 45.4794L93.7042 47.4289C93.465 47.5867 93.155 47.465 93.0445 47.2297C92.9293 46.9662 93.0461 46.6939 93.2711 46.5457L96.3814 44.6142C96.5176 41.6396 97.3298 39.2208 98.0207 37.5185C98.6631 35.6286 99.4321 34.4134 99.3789 34.3584C99.3789 34.3584 100.444 35.5693 100.584 37.6524C100.89 39.6125 100.028 42.4612 97.1697 44.6044C97.1889 44.6251 97.2119 44.6423 97.2289 44.6678C100.206 42.7911 102.85 41.7399 104.913 40.8222C107.296 39.9528 108.928 39.5956 108.928 39.5956C108.928 39.5956 108.707 40.2077 108.053 41.0423C107.387 41.8463 106.492 42.9883 105.259 43.9349C102.884 45.729 99.5783 46.7973 96.8573 45.4794Z" fill="white"/>
<path d="M106.429 32.2919L105.951 34.0241C105.873 34.2978 105.611 34.4602 105.358 34.3601C105.104 34.2602 104.962 33.968 105.032 33.7048L105.491 32.0389C103.741 30.0453 102.626 27.8879 102.111 26.1285C101.331 24.2073 101.319 22.6549 101.231 22.6311C101.231 22.6311 102.641 22.9956 104.012 24.4557C105.285 25.7168 106.592 28.0969 106.089 31.3223C106.124 31.3201 106.158 31.313 106.193 31.3188C107.027 28.1747 108.02 25.7774 109.028 23.9796C110.212 21.9767 111.339 20.8346 111.339 20.8346C111.339 20.8346 111.477 21.3798 111.453 22.291C111.458 23.1959 111.396 24.4613 111.177 25.799C110.55 28.3703 109.181 31.2923 106.429 32.2919Z" fill="white"/>
</svg>
